<svg width="36" height="36" viewBox="0 0 36 36" fill="none" xmlns="http://www.w3.org/2000/svg">
<rect width="36" height="35.9999" rx="9.5625" fill="#FFA347"/>
<ellipse cx="10.3516" cy="25.7142" rx="2.25" ry="2.25" transform="rotate(45 10.3516 25.7142)" fill="#D5700B"/>
<ellipse cx="25.8633" cy="10.202" rx="2.25" ry="2.25" transform="rotate(45 25.8633 10.202)" fill="#D5700B"/>
<ellipse cx="10.4507" cy="10.3014" rx="2.25" ry="2.25" transform="rotate(45 10.4507 10.3014)" fill="#D5700B"/>
<ellipse cx="28.8467" cy="17.9581" rx="2.25" ry="2.25" transform="rotate(45 28.8467 17.9581)" fill="#D5700B"/>
<ellipse cx="18.1074" cy="28.6974" rx="2.25" ry="2.25" transform="rotate(45 18.1074 28.6974)" fill="#D5700B"/>
<ellipse cx="7.11963" cy="18.0082" rx="2.25" ry="2.25" transform="rotate(45 7.11963 18.0082)" fill="#D5700B"/>
<ellipse cx="18.0078" cy="7.11948" rx="2.25" ry="2.25" transform="rotate(45 18.0078 7.11948)" fill="#D5700B"/>
<ellipse cx="25.4658" cy="25.5155" rx="2.25" ry="2.25" transform="rotate(45 25.4658 25.5155)" fill="white"/>
<path d="M21.3883 14.279C23.3654 16.256 23.3654 19.4614 21.3883 21.4384C19.4113 23.4155 16.2059 23.4155 14.2289 21.4384C12.2518 19.4614 12.2518 16.256 14.2289 14.279C16.2059 12.3019 19.4113 12.3019 21.3883 14.279Z" stroke="white" stroke-width="1.96875"/>
<path fill-rule="evenodd" clip-rule="evenodd" d="M25.9094 23.3098C24.598 23.0461 23.1744 22.4093 23.772 18.8642L18.8145 23.8218C22.3595 23.2242 22.9964 24.6478 23.2601 25.9592L25.9094 23.3098Z" fill="white"/>
</svg>
